<?xml version="1.0" encoding="UTF-8" standalone="no"?><svg xmlns="http://www.w3.org/2000/svg" xmlns:xlink="http://www.w3.org/1999/xlink" contentScriptType="application/ecmascript" contentStyleType="text/css" height="581px" preserveAspectRatio="none" style="width:1070px;height:581px;" version="1.1" viewBox="0 0 1070 581" width="1070px" zoomAndPan="magnify"><defs><filter height="300%" id="ffrifyna5kshk" width="300%" x="-1" y="-1"><feGaussianBlur result="blurOut" stdDeviation="2.0"/><feColorMatrix in="blurOut" result="blurOut2" type="matrix" values="0 0 0 0 0 0 0 0 0 0 0 0 0 0 0 0 0 0 .4 0"/><feOffset dx="4.0" dy="4.0" in="blurOut2" result="blurOut3"/><feBlend in="SourceGraphic" in2="blurOut3" mode="normal"/></filter></defs><g><!--cluster entity--><polygon fill="#FFFFFF" filter="url(#ffrifyna5kshk)" points="704,24,755,24,762,46.2969,1000,46.2969,1000,161,704,161,704,24" style="stroke: #000000; stroke-width: 1.5;"/><line style="stroke: #000000; stroke-width: 1.5;" x1="704" x2="762" y1="46.2969" y2="46.2969"/><text fill="#000000" font-family="sans-serif" font-size="14" font-weight="bold" lengthAdjust="spacingAndGlyphs" textLength="45" x="708" y="38.9951">entity</text><!--cluster store--><polygon fill="#FFFFFF" filter="url(#ffrifyna5kshk)" points="125,368,173,368,180,390.2969,1048,390.2969,1048,569,125,569,125,368" style="stroke: #000000; stroke-width: 1.5;"/><line style="stroke: #000000; stroke-width: 1.5;" x1="125" x2="180" y1="390.2969" y2="390.2969"/><text fill="#000000" font-family="sans-serif" font-size="14" font-weight="bold" lengthAdjust="spacingAndGlyphs" textLength="42" x="129" y="382.9951">store</text><!--class entity.User--><rect fill="#FEFECE" filter="url(#ffrifyna5kshk)" height="86.4141" id="entity.User" style="stroke: #A80036; stroke-width: 1.5;" width="99" x="884.5" y="59"/><ellipse cx="916.6" cy="75" fill="#ADD1B2" rx="11" ry="11" style="stroke: #A80036; stroke-width: 1.0;"/><path d="M918.9438,70.6719 L919.1156,70.75 C919.3344,70.4375 919.5375,70.3438 919.8344,70.3438 C920.1313,70.3438 920.4125,70.4844 920.5688,70.75 C920.6625,70.9063 920.6781,71.0313 920.6781,71.4688 L920.6781,72.8906 C920.6781,73.3125 920.6469,73.5 920.5375,73.6563 C920.3656,73.875 920.1,74.0156 919.8344,74.0156 C919.6156,74.0156 919.3813,73.9063 919.2406,73.7656 C919.1,73.6406 919.0688,73.5156 919.0063,73.1094 C918.9125,72.7031 918.7406,72.4844 918.2563,72.2031 C917.7875,71.9531 917.1781,71.7969 916.6,71.7969 C914.8656,71.7969 913.6156,73.1094 913.6156,74.8906 L913.6156,75.9844 C913.6156,77.6875 914.9125,78.7813 916.9594,78.7813 C917.725,78.7813 918.4125,78.6563 918.8344,78.3906 C919.0219,78.2969 919.0219,78.2969 919.475,77.8125 C919.6625,77.625 919.8656,77.5469 920.0844,77.5469 C920.5531,77.5469 920.9438,77.9375 920.9438,78.3906 C920.9438,78.7813 920.6156,79.2344 920.0375,79.6406 C919.2875,80.1875 918.1313,80.4844 916.9125,80.4844 C914.0219,80.4844 911.9125,78.5938 911.9125,76.0156 L911.9125,74.8906 C911.9125,72.1719 913.9125,70.0938 916.5375,70.0938 C917.4125,70.0938 918.0063,70.2344 918.9438,70.6719 Z "/><text fill="#000000" font-family="sans-serif" font-size="12" lengthAdjust="spacingAndGlyphs" textLength="29" x="934.4" y="79.1543">User</text><line style="stroke: #A80036; stroke-width: 1.5;" x1="885.5" x2="982.5" y1="91" y2="91"/><ellipse cx="895.5" cy="102.9023" fill="none" rx="3" ry="3" style="stroke: #038048; stroke-width: 1.0;"/><text fill="#000000" font-family="sans-serif" font-size="11" lengthAdjust="spacingAndGlyphs" textLength="63" x="904.5" y="105.2104">test: string</text><ellipse cx="895.5" cy="115.707" fill="none" rx="3" ry="3" style="stroke: #038048; stroke-width: 1.0;"/><text fill="#000000" font-family="sans-serif" font-size="11" lengthAdjust="spacingAndGlyphs" textLength="73" x="904.5" y="118.0151">name: string</text><ellipse cx="895.5" cy="128.5117" fill="none" rx="3" ry="3" style="stroke: #038048; stroke-width: 1.0;"/><text fill="#000000" font-family="sans-serif" font-size="11" lengthAdjust="spacingAndGlyphs" textLength="73" x="904.5" y="130.8198">age: number</text><line style="stroke: #A80036; stroke-width: 1.5;" x1="885.5" x2="982.5" y1="137.4141" y2="137.4141"/><!--class entity.MenuItem--><rect fill="#FEFECE" filter="url(#ffrifyna5kshk)" height="86.4141" id="entity.MenuItem" style="stroke: #A80036; stroke-width: 1.5;" width="129" x="720.5" y="59"/><ellipse cx="751.25" cy="75" fill="#B4A7E5" rx="11" ry="11" style="stroke: #A80036; stroke-width: 1.0;"/><path d="M752.2031,71.7813 L752.2031,78.2969 L753.9219,78.2969 C754.375,78.2969 754.5156,78.3281 754.6875,78.4531 C754.9219,78.625 755.0313,78.875 755.0313,79.1563 C755.0313,79.7188 754.6719,80 753.9219,80 L748.7813,80 C748.375,80 748.1719,79.9531 748.0156,79.8281 C747.7969,79.6719 747.6563,79.4063 747.6563,79.1563 C747.6563,78.8594 747.8125,78.5781 748.0625,78.4219 C748.2188,78.3125 748.3438,78.2969 748.7813,78.2969 L750.5,78.2969 L750.5,71.7813 L748.7813,71.7813 C748.3594,71.7813 748.1719,71.75 748.0156,71.6406 C747.7969,71.4688 747.6563,71.2188 747.6563,70.9375 C747.6563,70.6563 747.8125,70.3594 748.0625,70.2031 C748.2188,70.1094 748.3438,70.0938 748.7813,70.0938 L753.9219,70.0938 C754.375,70.0938 754.5156,70.125 754.6875,70.2344 C754.9219,70.4063 755.0313,70.6719 755.0313,70.9375 C755.0313,71.2344 754.8906,71.5156 754.625,71.6719 C754.5,71.75 754.3125,71.7813 753.9219,71.7813 Z "/><text fill="#000000" font-family="sans-serif" font-size="12" font-style="italic" lengthAdjust="spacingAndGlyphs" textLength="62" x="768.75" y="79.1543">MenuItem</text><line style="stroke: #A80036; stroke-width: 1.5;" x1="721.5" x2="848.5" y1="91" y2="91"/><ellipse cx="731.5" cy="102.9023" fill="none" rx="3" ry="3" style="stroke: #038048; stroke-width: 1.0;"/><text fill="#000000" font-family="sans-serif" font-size="11" lengthAdjust="spacingAndGlyphs" textLength="73" x="740.5" y="105.2104">name: string</text><ellipse cx="731.5" cy="115.707" fill="none" rx="3" ry="3" style="stroke: #038048; stroke-width: 1.0;"/><text fill="#000000" font-family="sans-serif" font-size="11" lengthAdjust="spacingAndGlyphs" textLength="66" x="740.5" y="118.0151">path: string</text><ellipse cx="731.5" cy="128.5117" fill="none" rx="3" ry="3" style="stroke: #038048; stroke-width: 1.0;"/><text fill="#000000" font-family="sans-serif" font-size="11" lengthAdjust="spacingAndGlyphs" textLength="103" x="740.5" y="130.8198">isDefault: boolean</text><line style="stroke: #A80036; stroke-width: 1.5;" x1="721.5" x2="848.5" y1="137.4141" y2="137.4141"/><!--class store.HeaderStore--><rect fill="#FEFECE" filter="url(#ffrifyna5kshk)" height="112.0234" id="store.HeaderStore" style="stroke: #A80036; stroke-width: 1.5;" width="274" x="509" y="422"/><ellipse cx="601.75" cy="438" fill="#ADD1B2" rx="11" ry="11" style="stroke: #A80036; stroke-width: 1.0;"/><path d="M604.0938,433.6719 L604.2656,433.75 C604.4844,433.4375 604.6875,433.3438 604.9844,433.3438 C605.2813,433.3438 605.5625,433.4844 605.7188,433.75 C605.8125,433.9063 605.8281,434.0313 605.8281,434.4688 L605.8281,435.8906 C605.8281,436.3125 605.7969,436.5 605.6875,436.6563 C605.5156,436.875 605.25,437.0156 604.9844,437.0156 C604.7656,437.0156 604.5313,436.9063 604.3906,436.7656 C604.25,436.6406 604.2188,436.5156 604.1563,436.1094 C604.0625,435.7031 603.8906,435.4844 603.4063,435.2031 C602.9375,434.9531 602.3281,434.7969 601.75,434.7969 C600.0156,434.7969 598.7656,436.1094 598.7656,437.8906 L598.7656,438.9844 C598.7656,440.6875 600.0625,441.7813 602.1094,441.7813 C602.875,441.7813 603.5625,441.6563 603.9844,441.3906 C604.1719,441.2969 604.1719,441.2969 604.625,440.8125 C604.8125,440.625 605.0156,440.5469 605.2344,440.5469 C605.7031,440.5469 606.0938,440.9375 606.0938,441.3906 C606.0938,441.7813 605.7656,442.2344 605.1875,442.6406 C604.4375,443.1875 603.2813,443.4844 602.0625,443.4844 C599.1719,443.4844 597.0625,441.5938 597.0625,439.0156 L597.0625,437.8906 C597.0625,435.1719 599.0625,433.0938 601.6875,433.0938 C602.5625,433.0938 603.1563,433.2344 604.0938,433.6719 Z "/><text fill="#000000" font-family="sans-serif" font-size="12" lengthAdjust="spacingAndGlyphs" textLength="80" x="622.25" y="442.1543">HeaderStore</text><line style="stroke: #A80036; stroke-width: 1.5;" x1="510" x2="782" y1="454" y2="454"/><ellipse cx="520" cy="465.9023" fill="none" rx="3" ry="3" style="stroke: #038048; stroke-width: 1.0;"/><text fill="#000000" font-family="sans-serif" font-size="11" lengthAdjust="spacingAndGlyphs" textLength="110" x="529" y="468.2104">menus: MenuItem[]</text><ellipse cx="520" cy="478.707" fill="none" rx="3" ry="3" style="stroke: #038048; stroke-width: 1.0;"/><text fill="#000000" font-family="sans-serif" font-size="11" lengthAdjust="spacingAndGlyphs" textLength="166" x="529" y="481.0151">selectedMenuItem: MenuItem</text><ellipse cx="520" cy="491.5117" fill="none" rx="3" ry="3" style="stroke: #038048; stroke-width: 1.0;"/><text fill="#000000" font-family="sans-serif" font-size="11" lengthAdjust="spacingAndGlyphs" textLength="92" x="529" y="493.8198">temp: MenuItem</text><line style="stroke: #A80036; stroke-width: 1.5;" x1="510" x2="782" y1="500.4141" y2="500.4141"/><ellipse cx="520" cy="512.3164" fill="#84BE84" rx="3" ry="3" style="stroke: #038048; stroke-width: 1.0;"/><text fill="#000000" font-family="sans-serif" font-size="11" lengthAdjust="spacingAndGlyphs" textLength="248" x="529" y="514.6245">selectMenuItem(menuItem: MenuItem): void</text><ellipse cx="520" cy="525.1211" fill="#84BE84" rx="3" ry="3" style="stroke: #038048; stroke-width: 1.0;"/><text fill="#000000" font-family="sans-serif" font-size="11" lengthAdjust="spacingAndGlyphs" textLength="120" x="529" y="527.4292">requestMenus(): void</text><!--class store.Sub1--><rect fill="#FEFECE" filter="url(#ffrifyna5kshk)" height="60.8047" id="store.Sub1" style="stroke: #A80036; stroke-width: 1.5;" width="99" x="141.5" y="447.5"/><ellipse cx="172.25" cy="463.5" fill="#ADD1B2" rx="11" ry="11" style="stroke: #A80036; stroke-width: 1.0;"/><path d="M174.5938,459.1719 L174.7656,459.25 C174.9844,458.9375 175.1875,458.8438 175.4844,458.8438 C175.7813,458.8438 176.0625,458.9844 176.2188,459.25 C176.3125,459.4063 176.3281,459.5313 176.3281,459.9688 L176.3281,461.3906 C176.3281,461.8125 176.2969,462 176.1875,462.1563 C176.0156,462.375 175.75,462.5156 175.4844,462.5156 C175.2656,462.5156 175.0313,462.4063 174.8906,462.2656 C174.75,462.1406 174.7188,462.0156 174.6563,461.6094 C174.5625,461.2031 174.3906,460.9844 173.9063,460.7031 C173.4375,460.4531 172.8281,460.2969 172.25,460.2969 C170.5156,460.2969 169.2656,461.6094 169.2656,463.3906 L169.2656,464.4844 C169.2656,466.1875 170.5625,467.2813 172.6094,467.2813 C173.375,467.2813 174.0625,467.1563 174.4844,466.8906 C174.6719,466.7969 174.6719,466.7969 175.125,466.3125 C175.3125,466.125 175.5156,466.0469 175.7344,466.0469 C176.2031,466.0469 176.5938,466.4375 176.5938,466.8906 C176.5938,467.2813 176.2656,467.7344 175.6875,468.1406 C174.9375,468.6875 173.7813,468.9844 172.5625,468.9844 C169.6719,468.9844 167.5625,467.0938 167.5625,464.5156 L167.5625,463.3906 C167.5625,460.6719 169.5625,458.5938 172.1875,458.5938 C173.0625,458.5938 173.6563,458.7344 174.5938,459.1719 Z "/><text fill="#000000" font-family="sans-serif" font-size="12" lengthAdjust="spacingAndGlyphs" textLength="32" x="189.75" y="467.6543">Sub1</text><line style="stroke: #A80036; stroke-width: 1.5;" x1="142.5" x2="239.5" y1="479.5" y2="479.5"/><ellipse cx="152.5" cy="491.4023" fill="none" rx="3" ry="3" style="stroke: #038048; stroke-width: 1.0;"/><text fill="#000000" font-family="sans-serif" font-size="11" lengthAdjust="spacingAndGlyphs" textLength="73" x="161.5" y="493.7104">name: string</text><line style="stroke: #A80036; stroke-width: 1.5;" x1="142.5" x2="239.5" y1="500.3047" y2="500.3047"/><!--class store.Sub2--><rect fill="#FEFECE" filter="url(#ffrifyna5kshk)" height="48" id="store.Sub2" style="stroke: #A80036; stroke-width: 1.5;" width="64" x="410" y="454"/><ellipse cx="425" cy="470" fill="#ADD1B2" rx="11" ry="11" style="stroke: #A80036; stroke-width: 1.0;"/><path d="M427.3438,465.6719 L427.5156,465.75 C427.7344,465.4375 427.9375,465.3438 428.2344,465.3438 C428.5313,465.3438 428.8125,465.4844 428.9688,465.75 C429.0625,465.9063 429.0781,466.0313 429.0781,466.4688 L429.0781,467.8906 C429.0781,468.3125 429.0469,468.5 428.9375,468.6563 C428.7656,468.875 428.5,469.0156 428.2344,469.0156 C428.0156,469.0156 427.7813,468.9063 427.6406,468.7656 C427.5,468.6406 427.4688,468.5156 427.4063,468.1094 C427.3125,467.7031 427.1406,467.4844 426.6563,467.2031 C426.1875,466.9531 425.5781,466.7969 425,466.7969 C423.2656,466.7969 422.0156,468.1094 422.0156,469.8906 L422.0156,470.9844 C422.0156,472.6875 423.3125,473.7813 425.3594,473.7813 C426.125,473.7813 426.8125,473.6563 427.2344,473.3906 C427.4219,473.2969 427.4219,473.2969 427.875,472.8125 C428.0625,472.625 428.2656,472.5469 428.4844,472.5469 C428.9531,472.5469 429.3438,472.9375 429.3438,473.3906 C429.3438,473.7813 429.0156,474.2344 428.4375,474.6406 C427.6875,475.1875 426.5313,475.4844 425.3125,475.4844 C422.4219,475.4844 420.3125,473.5938 420.3125,471.0156 L420.3125,469.8906 C420.3125,467.1719 422.3125,465.0938 424.9375,465.0938 C425.8125,465.0938 426.4063,465.2344 427.3438,465.6719 Z "/><text fill="#000000" font-family="sans-serif" font-size="12" lengthAdjust="spacingAndGlyphs" textLength="32" x="439" y="474.1543">Sub2</text><line style="stroke: #A80036; stroke-width: 1.5;" x1="411" x2="473" y1="486" y2="486"/><line style="stroke: #A80036; stroke-width: 1.5;" x1="411" x2="473" y1="494" y2="494"/><!--class store.Sub11--><rect fill="#FEFECE" filter="url(#ffrifyna5kshk)" height="60.8047" id="store.Sub11" style="stroke: #A80036; stroke-width: 1.5;" width="99" x="275.5" y="447.5"/><ellipse cx="302.65" cy="463.5" fill="#ADD1B2" rx="11" ry="11" style="stroke: #A80036; stroke-width: 1.0;"/><path d="M304.9938,459.1719 L305.1656,459.25 C305.3844,458.9375 305.5875,458.8438 305.8844,458.8438 C306.1813,458.8438 306.4625,458.9844 306.6188,459.25 C306.7125,459.4063 306.7281,459.5313 306.7281,459.9688 L306.7281,461.3906 C306.7281,461.8125 306.6969,462 306.5875,462.1563 C306.4156,462.375 306.15,462.5156 305.8844,462.5156 C305.6656,462.5156 305.4313,462.4063 305.2906,462.2656 C305.15,462.1406 305.1188,462.0156 305.0563,461.6094 C304.9625,461.2031 304.7906,460.9844 304.3063,460.7031 C303.8375,460.4531 303.2281,460.2969 302.65,460.2969 C300.9156,460.2969 299.6656,461.6094 299.6656,463.3906 L299.6656,464.4844 C299.6656,466.1875 300.9625,467.2813 303.0094,467.2813 C303.775,467.2813 304.4625,467.1563 304.8844,466.8906 C305.0719,466.7969 305.0719,466.7969 305.525,466.3125 C305.7125,466.125 305.9156,466.0469 306.1344,466.0469 C306.6031,466.0469 306.9938,466.4375 306.9938,466.8906 C306.9938,467.2813 306.6656,467.7344 306.0875,468.1406 C305.3375,468.6875 304.1813,468.9844 302.9625,468.9844 C300.0719,468.9844 297.9625,467.0938 297.9625,464.5156 L297.9625,463.3906 C297.9625,460.6719 299.9625,458.5938 302.5875,458.5938 C303.4625,458.5938 304.0563,458.7344 304.9938,459.1719 Z "/><text fill="#000000" font-family="sans-serif" font-size="12" lengthAdjust="spacingAndGlyphs" textLength="40" x="319.35" y="467.6543">Sub11</text><line style="stroke: #A80036; stroke-width: 1.5;" x1="276.5" x2="373.5" y1="479.5" y2="479.5"/><ellipse cx="286.5" cy="491.4023" fill="none" rx="3" ry="3" style="stroke: #038048; stroke-width: 1.0;"/><text fill="#000000" font-family="sans-serif" font-size="11" lengthAdjust="spacingAndGlyphs" textLength="73" x="295.5" y="493.7104">name: string</text><line style="stroke: #A80036; stroke-width: 1.5;" x1="276.5" x2="373.5" y1="500.3047" y2="500.3047"/><!--class store.UserStore--><rect fill="#FEFECE" filter="url(#ffrifyna5kshk)" height="150.4375" id="store.UserStore" style="stroke: #A80036; stroke-width: 1.5;" width="213" x="818.5" y="403"/><ellipse cx="889.25" cy="419" fill="#ADD1B2" rx="11" ry="11" style="stroke: #A80036; stroke-width: 1.0;"/><path d="M891.5938,414.6719 L891.7656,414.75 C891.9844,414.4375 892.1875,414.3438 892.4844,414.3438 C892.7813,414.3438 893.0625,414.4844 893.2188,414.75 C893.3125,414.9063 893.3281,415.0313 893.3281,415.4688 L893.3281,416.8906 C893.3281,417.3125 893.2969,417.5 893.1875,417.6563 C893.0156,417.875 892.75,418.0156 892.4844,418.0156 C892.2656,418.0156 892.0313,417.9063 891.8906,417.7656 C891.75,417.6406 891.7188,417.5156 891.6563,417.1094 C891.5625,416.7031 891.3906,416.4844 890.9063,416.2031 C890.4375,415.9531 889.8281,415.7969 889.25,415.7969 C887.5156,415.7969 886.2656,417.1094 886.2656,418.8906 L886.2656,419.9844 C886.2656,421.6875 887.5625,422.7813 889.6094,422.7813 C890.375,422.7813 891.0625,422.6563 891.4844,422.3906 C891.6719,422.2969 891.6719,422.2969 892.125,421.8125 C892.3125,421.625 892.5156,421.5469 892.7344,421.5469 C893.2031,421.5469 893.5938,421.9375 893.5938,422.3906 C893.5938,422.7813 893.2656,423.2344 892.6875,423.6406 C891.9375,424.1875 890.7813,424.4844 889.5625,424.4844 C886.6719,424.4844 884.5625,422.5938 884.5625,420.0156 L884.5625,418.8906 C884.5625,416.1719 886.5625,414.0938 889.1875,414.0938 C890.0625,414.0938 890.6563,414.2344 891.5938,414.6719 Z "/><text fill="#000000" font-family="sans-serif" font-size="12" lengthAdjust="spacingAndGlyphs" textLength="63" x="909.75" y="423.1543">UserStore</text><line style="stroke: #A80036; stroke-width: 1.5;" x1="819.5" x2="1030.5" y1="435" y2="435"/><ellipse cx="829.5" cy="446.9023" fill="none" rx="3" ry="3" style="stroke: #038048; stroke-width: 1.0;"/><text fill="#000000" font-family="sans-serif" font-size="11" lengthAdjust="spacingAndGlyphs" textLength="60" x="838.5" y="449.2104">list: User[]</text><ellipse cx="829.5" cy="459.707" fill="none" rx="3" ry="3" style="stroke: #038048; stroke-width: 1.0;"/><text fill="#000000" font-family="sans-serif" font-size="11" lengthAdjust="spacingAndGlyphs" textLength="83" x="838.5" y="462.0151">selected: User</text><line style="stroke: #A80036; stroke-width: 1.5;" x1="819.5" x2="1030.5" y1="468.6094" y2="468.6094"/><ellipse cx="829.5" cy="480.5117" fill="#84BE84" rx="3" ry="3" style="stroke: #038048; stroke-width: 1.0;"/><text fill="#000000" font-family="sans-serif" font-size="11" lengthAdjust="spacingAndGlyphs" textLength="137" x="838.5" y="482.8198">getSelectedUser(): User</text><ellipse cx="829.5" cy="493.3164" fill="#84BE84" rx="3" ry="3" style="stroke: #038048; stroke-width: 1.0;"/><text fill="#000000" font-family="sans-serif" font-size="11" lengthAdjust="spacingAndGlyphs" textLength="187" x="838.5" y="495.6245">getSelectedUserName(): number</text><ellipse cx="829.5" cy="506.1211" fill="#84BE84" rx="3" ry="3" style="stroke: #038048; stroke-width: 1.0;"/><text fill="#000000" font-family="sans-serif" font-size="11" lengthAdjust="spacingAndGlyphs" textLength="103" x="838.5" y="508.4292">getUsers(): User[]</text><ellipse cx="829.5" cy="518.9258" fill="#84BE84" rx="3" ry="3" style="stroke: #038048; stroke-width: 1.0;"/><text fill="#000000" font-family="sans-serif" font-size="11" lengthAdjust="spacingAndGlyphs" textLength="148" x="838.5" y="521.2339">addUser(user: User): void</text><ellipse cx="829.5" cy="531.7305" fill="#84BE84" rx="3" ry="3" style="stroke: #038048; stroke-width: 1.0;"/><text fill="#000000" font-family="sans-serif" font-size="11" lengthAdjust="spacingAndGlyphs" textLength="156" x="838.5" y="534.0386">rename(name: string): void</text><ellipse cx="829.5" cy="544.5352" fill="#84BE84" rx="3" ry="3" style="stroke: #038048; stroke-width: 1.0;"/><text fill="#000000" font-family="sans-serif" font-size="11" lengthAdjust="spacingAndGlyphs" textLength="161" x="838.5" y="546.8433">selectUser(user: User): void</text><!--class HeaderNav--><rect fill="#FEFECE" filter="url(#ffrifyna5kshk)" height="99.2188" id="HeaderNav" style="stroke: #A80036; stroke-width: 1.5;" width="274" x="125" y="224.5"/><ellipse cx="223.25" cy="240.5" fill="#ADD1B2" rx="11" ry="11" style="stroke: #A80036; stroke-width: 1.0;"/><path d="M225.5938,236.1719 L225.7656,236.25 C225.9844,235.9375 226.1875,235.8438 226.4844,235.8438 C226.7813,235.8438 227.0625,235.9844 227.2188,236.25 C227.3125,236.4063 227.3281,236.5313 227.3281,236.9688 L227.3281,238.3906 C227.3281,238.8125 227.2969,239 227.1875,239.1563 C227.0156,239.375 226.75,239.5156 226.4844,239.5156 C226.2656,239.5156 226.0313,239.4063 225.8906,239.2656 C225.75,239.1406 225.7188,239.0156 225.6563,238.6094 C225.5625,238.2031 225.3906,237.9844 224.9063,237.7031 C224.4375,237.4531 223.8281,237.2969 223.25,237.2969 C221.5156,237.2969 220.2656,238.6094 220.2656,240.3906 L220.2656,241.4844 C220.2656,243.1875 221.5625,244.2813 223.6094,244.2813 C224.375,244.2813 225.0625,244.1563 225.4844,243.8906 C225.6719,243.7969 225.6719,243.7969 226.125,243.3125 C226.3125,243.125 226.5156,243.0469 226.7344,243.0469 C227.2031,243.0469 227.5938,243.4375 227.5938,243.8906 C227.5938,244.2813 227.2656,244.7344 226.6875,245.1406 C225.9375,245.6875 224.7813,245.9844 223.5625,245.9844 C220.6719,245.9844 218.5625,244.0938 218.5625,241.5156 L218.5625,240.3906 C218.5625,237.6719 220.5625,235.5938 223.1875,235.5938 C224.0625,235.5938 224.6563,235.7344 225.5938,236.1719 Z "/><text fill="#000000" font-family="sans-serif" font-size="12" lengthAdjust="spacingAndGlyphs" textLength="69" x="243.75" y="244.6543">HeaderNav</text><line style="stroke: #A80036; stroke-width: 1.5;" x1="126" x2="398" y1="256.5" y2="256.5"/><ellipse cx="136" cy="268.4023" fill="none" rx="3" ry="3" style="stroke: #038048; stroke-width: 1.0;"/><text fill="#000000" font-family="sans-serif" font-size="11" lengthAdjust="spacingAndGlyphs" textLength="135" x="145" y="270.7104">menuItems: MenuItem[]</text><ellipse cx="136" cy="281.207" fill="none" rx="3" ry="3" style="stroke: #038048; stroke-width: 1.0;"/><text fill="#000000" font-family="sans-serif" font-size="11" lengthAdjust="spacingAndGlyphs" textLength="95" x="145" y="283.5151">subName: string</text><ellipse cx="136" cy="294.0117" fill="none" rx="3" ry="3" style="stroke: #038048; stroke-width: 1.0;"/><text fill="#000000" font-family="sans-serif" font-size="11" lengthAdjust="spacingAndGlyphs" textLength="166" x="145" y="296.3198">selectedMenuItem: MenuItem</text><line style="stroke: #A80036; stroke-width: 1.5;" x1="126" x2="398" y1="302.9141" y2="302.9141"/><ellipse cx="136" cy="314.8164" fill="#84BE84" rx="3" ry="3" style="stroke: #038048; stroke-width: 1.0;"/><text fill="#000000" font-family="sans-serif" font-size="11" lengthAdjust="spacingAndGlyphs" textLength="248" x="145" y="317.1245">selectMenuItem(menuItem: MenuItem): void</text><!--class Vue--><rect fill="#FEFECE" filter="url(#ffrifyna5kshk)" height="48" id="Vue" style="stroke: #A80036; stroke-width: 1.5;" width="56" x="534" y="78"/><ellipse cx="549" cy="94" fill="#ADD1B2" rx="11" ry="11" style="stroke: #A80036; stroke-width: 1.0;"/><path d="M551.3438,89.6719 L551.5156,89.75 C551.7344,89.4375 551.9375,89.3438 552.2344,89.3438 C552.5313,89.3438 552.8125,89.4844 552.9688,89.75 C553.0625,89.9063 553.0781,90.0313 553.0781,90.4688 L553.0781,91.8906 C553.0781,92.3125 553.0469,92.5 552.9375,92.6563 C552.7656,92.875 552.5,93.0156 552.2344,93.0156 C552.0156,93.0156 551.7813,92.9063 551.6406,92.7656 C551.5,92.6406 551.4688,92.5156 551.4063,92.1094 C551.3125,91.7031 551.1406,91.4844 550.6563,91.2031 C550.1875,90.9531 549.5781,90.7969 549,90.7969 C547.2656,90.7969 546.0156,92.1094 546.0156,93.8906 L546.0156,94.9844 C546.0156,96.6875 547.3125,97.7813 549.3594,97.7813 C550.125,97.7813 550.8125,97.6563 551.2344,97.3906 C551.4219,97.2969 551.4219,97.2969 551.875,96.8125 C552.0625,96.625 552.2656,96.5469 552.4844,96.5469 C552.9531,96.5469 553.3438,96.9375 553.3438,97.3906 C553.3438,97.7813 553.0156,98.2344 552.4375,98.6406 C551.6875,99.1875 550.5313,99.4844 549.3125,99.4844 C546.4219,99.4844 544.3125,97.5938 544.3125,95.0156 L544.3125,93.8906 C544.3125,91.1719 546.3125,89.0938 548.9375,89.0938 C549.8125,89.0938 550.4063,89.2344 551.3438,89.6719 Z "/><text fill="#000000" font-family="sans-serif" font-size="12" lengthAdjust="spacingAndGlyphs" textLength="24" x="563" y="98.1543">Vue</text><line style="stroke: #A80036; stroke-width: 1.5;" x1="535" x2="589" y1="110" y2="110"/><line style="stroke: #A80036; stroke-width: 1.5;" x1="535" x2="589" y1="118" y2="118"/><!--class subModule--><rect fill="#FEFECE" filter="url(#ffrifyna5kshk)" height="48" id="subModule" style="stroke: #A80036; stroke-width: 1.5;" width="100" x="6" y="454"/><ellipse cx="21" cy="470" fill="#ADD1B2" rx="11" ry="11" style="stroke: #A80036; stroke-width: 1.0;"/><path d="M23.3438,465.6719 L23.5156,465.75 C23.7344,465.4375 23.9375,465.3438 24.2344,465.3438 C24.5313,465.3438 24.8125,465.4844 24.9688,465.75 C25.0625,465.9063 25.0781,466.0313 25.0781,466.4688 L25.0781,467.8906 C25.0781,468.3125 25.0469,468.5 24.9375,468.6563 C24.7656,468.875 24.5,469.0156 24.2344,469.0156 C24.0156,469.0156 23.7813,468.9063 23.6406,468.7656 C23.5,468.6406 23.4688,468.5156 23.4063,468.1094 C23.3125,467.7031 23.1406,467.4844 22.6563,467.2031 C22.1875,466.9531 21.5781,466.7969 21,466.7969 C19.2656,466.7969 18.0156,468.1094 18.0156,469.8906 L18.0156,470.9844 C18.0156,472.6875 19.3125,473.7813 21.3594,473.7813 C22.125,473.7813 22.8125,473.6563 23.2344,473.3906 C23.4219,473.2969 23.4219,473.2969 23.875,472.8125 C24.0625,472.625 24.2656,472.5469 24.4844,472.5469 C24.9531,472.5469 25.3438,472.9375 25.3438,473.3906 C25.3438,473.7813 25.0156,474.2344 24.4375,474.6406 C23.6875,475.1875 22.5313,475.4844 21.3125,475.4844 C18.4219,475.4844 16.3125,473.5938 16.3125,471.0156 L16.3125,469.8906 C16.3125,467.1719 18.3125,465.0938 20.9375,465.0938 C21.8125,465.0938 22.4063,465.2344 23.3438,465.6719 Z "/><text fill="#000000" font-family="sans-serif" font-size="12" lengthAdjust="spacingAndGlyphs" textLength="68" x="35" y="474.1543">subModule</text><line style="stroke: #A80036; stroke-width: 1.5;" x1="7" x2="105" y1="486" y2="486"/><line style="stroke: #A80036; stroke-width: 1.5;" x1="7" x2="105" y1="494" y2="494"/><!--class User--><rect fill="#FEFECE" filter="url(#ffrifyna5kshk)" height="60.8047" id="User" style="stroke: #A80036; stroke-width: 1.5;" width="73" x="477.5" y="243.5"/><ellipse cx="497.9" cy="259.5" fill="#ADD1B2" rx="11" ry="11" style="stroke: #A80036; stroke-width: 1.0;"/><path d="M500.2438,255.1719 L500.4156,255.25 C500.6344,254.9375 500.8375,254.8438 501.1344,254.8438 C501.4313,254.8438 501.7125,254.9844 501.8688,255.25 C501.9625,255.4063 501.9781,255.5313 501.9781,255.9688 L501.9781,257.3906 C501.9781,257.8125 501.9469,258 501.8375,258.1563 C501.6656,258.375 501.4,258.5156 501.1344,258.5156 C500.9156,258.5156 500.6813,258.4063 500.5406,258.2656 C500.4,258.1406 500.3688,258.0156 500.3063,257.6094 C500.2125,257.2031 500.0406,256.9844 499.5563,256.7031 C499.0875,256.4531 498.4781,256.2969 497.9,256.2969 C496.1656,256.2969 494.9156,257.6094 494.9156,259.3906 L494.9156,260.4844 C494.9156,262.1875 496.2125,263.2813 498.2594,263.2813 C499.025,263.2813 499.7125,263.1563 500.1344,262.8906 C500.3219,262.7969 500.3219,262.7969 500.775,262.3125 C500.9625,262.125 501.1656,262.0469 501.3844,262.0469 C501.8531,262.0469 502.2438,262.4375 502.2438,262.8906 C502.2438,263.2813 501.9156,263.7344 501.3375,264.1406 C500.5875,264.6875 499.4313,264.9844 498.2125,264.9844 C495.3219,264.9844 493.2125,263.0938 493.2125,260.5156 L493.2125,259.3906 C493.2125,256.6719 495.2125,254.5938 497.8375,254.5938 C498.7125,254.5938 499.3063,254.7344 500.2438,255.1719 Z "/><text fill="#000000" font-family="sans-serif" font-size="12" lengthAdjust="spacingAndGlyphs" textLength="29" x="513.1" y="263.6543">User</text><line style="stroke: #A80036; stroke-width: 1.5;" x1="478.5" x2="549.5" y1="275.5" y2="275.5"/><ellipse cx="488.5" cy="287.4023" fill="none" rx="3" ry="3" style="stroke: #038048; stroke-width: 1.0;"/><text fill="#000000" font-family="sans-serif" font-size="11" lengthAdjust="spacingAndGlyphs" textLength="47" x="497.5" y="289.7104">data: {}</text><line style="stroke: #A80036; stroke-width: 1.5;" x1="478.5" x2="549.5" y1="296.3047" y2="296.3047"/><!--class HelloWorld--><rect fill="#FEFECE" filter="url(#ffrifyna5kshk)" height="137.6328" id="HelloWorld" style="stroke: #A80036; stroke-width: 1.5;" width="174" x="586" y="205"/><ellipse cx="635.75" cy="221" fill="#ADD1B2" rx="11" ry="11" style="stroke: #A80036; stroke-width: 1.0;"/><path d="M638.0938,216.6719 L638.2656,216.75 C638.4844,216.4375 638.6875,216.3438 638.9844,216.3438 C639.2813,216.3438 639.5625,216.4844 639.7188,216.75 C639.8125,216.9063 639.8281,217.0313 639.8281,217.4688 L639.8281,218.8906 C639.8281,219.3125 639.7969,219.5 639.6875,219.6563 C639.5156,219.875 639.25,220.0156 638.9844,220.0156 C638.7656,220.0156 638.5313,219.9063 638.3906,219.7656 C638.25,219.6406 638.2188,219.5156 638.1563,219.1094 C638.0625,218.7031 637.8906,218.4844 637.4063,218.2031 C636.9375,217.9531 636.3281,217.7969 635.75,217.7969 C634.0156,217.7969 632.7656,219.1094 632.7656,220.8906 L632.7656,221.9844 C632.7656,223.6875 634.0625,224.7813 636.1094,224.7813 C636.875,224.7813 637.5625,224.6563 637.9844,224.3906 C638.1719,224.2969 638.1719,224.2969 638.625,223.8125 C638.8125,223.625 639.0156,223.5469 639.2344,223.5469 C639.7031,223.5469 640.0938,223.9375 640.0938,224.3906 C640.0938,224.7813 639.7656,225.2344 639.1875,225.6406 C638.4375,226.1875 637.2813,226.4844 636.0625,226.4844 C633.1719,226.4844 631.0625,224.5938 631.0625,222.0156 L631.0625,220.8906 C631.0625,218.1719 633.0625,216.0938 635.6875,216.0938 C636.5625,216.0938 637.1563,216.2344 638.0938,216.6719 Z "/><text fill="#000000" font-family="sans-serif" font-size="12" lengthAdjust="spacingAndGlyphs" textLength="66" x="656.25" y="225.1543">HelloWorld</text><line style="stroke: #A80036; stroke-width: 1.5;" x1="587" x2="759" y1="237" y2="237"/><rect fill="none" height="6" style="stroke: #C82930; stroke-width: 1.0;" width="6" x="594" y="245.9023"/><text fill="#000000" font-family="sans-serif" font-size="11" lengthAdjust="spacingAndGlyphs" textLength="66" x="606" y="251.2104">msg: string</text><ellipse cx="597" cy="261.707" fill="none" rx="3" ry="3" style="stroke: #038048; stroke-width: 1.0;"/><text fill="#000000" font-family="sans-serif" font-size="11" lengthAdjust="spacingAndGlyphs" textLength="115" x="606" y="264.0151">outsideState: User[]</text><ellipse cx="597" cy="274.5117" fill="none" rx="3" ry="3" style="stroke: #038048; stroke-width: 1.0;"/><text fill="#000000" font-family="sans-serif" font-size="11" lengthAdjust="spacingAndGlyphs" textLength="110" x="606" y="276.8198">selectedUser: User</text><ellipse cx="597" cy="287.3164" fill="none" rx="3" ry="3" style="stroke: #038048; stroke-width: 1.0;"/><text fill="#000000" font-family="sans-serif" font-size="11" lengthAdjust="spacingAndGlyphs" textLength="148" x="606" y="289.6245">selectedUserAge: number</text><line style="stroke: #A80036; stroke-width: 1.5;" x1="587" x2="759" y1="296.2188" y2="296.2188"/><ellipse cx="597" cy="308.1211" fill="#84BE84" rx="3" ry="3" style="stroke: #038048; stroke-width: 1.0;"/><text fill="#000000" font-family="sans-serif" font-size="11" lengthAdjust="spacingAndGlyphs" textLength="63" x="606" y="310.4292">click(): void</text><ellipse cx="597" cy="320.9258" fill="#84BE84" rx="3" ry="3" style="stroke: #038048; stroke-width: 1.0;"/><text fill="#000000" font-family="sans-serif" font-size="11" lengthAdjust="spacingAndGlyphs" textLength="83" x="606" y="323.2339">rename(): void</text><ellipse cx="597" cy="333.7305" fill="#84BE84" rx="3" ry="3" style="stroke: #038048; stroke-width: 1.0;"/><text fill="#000000" font-family="sans-serif" font-size="11" lengthAdjust="spacingAndGlyphs" textLength="134" x="606" y="336.0386">select(user: User): void</text><!--class UserDetail--><rect fill="#FEFECE" filter="url(#ffrifyna5kshk)" height="60.8047" id="UserDetail" style="stroke: #A80036; stroke-width: 1.5;" width="97" x="849.5" y="243.5"/><ellipse cx="864.5" cy="259.5" fill="#ADD1B2" rx="11" ry="11" style="stroke: #A80036; stroke-width: 1.0;"/><path d="M866.8438,255.1719 L867.0156,255.25 C867.2344,254.9375 867.4375,254.8438 867.7344,254.8438 C868.0313,254.8438 868.3125,254.9844 868.4688,255.25 C868.5625,255.4063 868.5781,255.5313 868.5781,255.9688 L868.5781,257.3906 C868.5781,257.8125 868.5469,258 868.4375,258.1563 C868.2656,258.375 868,258.5156 867.7344,258.5156 C867.5156,258.5156 867.2813,258.4063 867.1406,258.2656 C867,258.1406 866.9688,258.0156 866.9063,257.6094 C866.8125,257.2031 866.6406,256.9844 866.1563,256.7031 C865.6875,256.4531 865.0781,256.2969 864.5,256.2969 C862.7656,256.2969 861.5156,257.6094 861.5156,259.3906 L861.5156,260.4844 C861.5156,262.1875 862.8125,263.2813 864.8594,263.2813 C865.625,263.2813 866.3125,263.1563 866.7344,262.8906 C866.9219,262.7969 866.9219,262.7969 867.375,262.3125 C867.5625,262.125 867.7656,262.0469 867.9844,262.0469 C868.4531,262.0469 868.8438,262.4375 868.8438,262.8906 C868.8438,263.2813 868.5156,263.7344 867.9375,264.1406 C867.1875,264.6875 866.0313,264.9844 864.8125,264.9844 C861.9219,264.9844 859.8125,263.0938 859.8125,260.5156 L859.8125,259.3906 C859.8125,256.6719 861.8125,254.5938 864.4375,254.5938 C865.3125,254.5938 865.9063,254.7344 866.8438,255.1719 Z "/><text fill="#000000" font-family="sans-serif" font-size="12" lengthAdjust="spacingAndGlyphs" textLength="65" x="878.5" y="263.6543">UserDetail</text><line style="stroke: #A80036; stroke-width: 1.5;" x1="850.5" x2="945.5" y1="275.5" y2="275.5"/><ellipse cx="860.5" cy="287.4023" fill="none" rx="3" ry="3" style="stroke: #038048; stroke-width: 1.0;"/><text fill="#000000" font-family="sans-serif" font-size="11" lengthAdjust="spacingAndGlyphs" textLength="61" x="869.5" y="289.7104">user: User</text><line style="stroke: #A80036; stroke-width: 1.5;" x1="850.5" x2="945.5" y1="296.3047" y2="296.3047"/><!--link Vue to HeaderNav--><path d="M516.253,128.923 C471.622,154.214 402.629,193.31 347.769,224.398 " fill="none" id="Vue-HeaderNav" style="stroke: #A80036; stroke-width: 1.0;"/><polygon fill="none" points="512.925,122.763,533.777,118.993,519.827,134.944,512.925,122.763" style="stroke: #A80036; stroke-width: 1.0;"/><!--link HeaderNav to store.HeaderStore--><path d="M399.002,318.437 C430.022,330.287 462.266,344.265 491,360 C521.035,376.447 551.636,398.26 577.625,418.593 " fill="none" id="HeaderNav-store.HeaderStore" style="stroke: #A80036; stroke-width: 1.0;"/><polygon fill="#A80036" points="581.756,421.842,577.1553,413.1337,577.8261,418.7507,572.2092,419.4215,581.756,421.842" style="stroke: #A80036; stroke-width: 1.0;"/><!--link HeaderNav to store.Sub1--><path d="M244.903,323.641 C232.05,360.209 214.748,409.435 203.252,442.143 " fill="none" id="HeaderNav-store.Sub1" style="stroke: #A80036; stroke-width: 1.0;"/><polygon fill="#A80036" points="201.458,447.246,208.2149,440.0805,203.1152,442.5286,200.6671,437.4289,201.458,447.246" style="stroke: #A80036; stroke-width: 1.0;"/><!--link HeaderNav to subModule--><path d="M169.679,323.655 C153.743,334.378 138.111,346.591 125,360 C99.3913,386.191 79.4562,423.673 67.7378,449.102 " fill="none" id="HeaderNav-subModule" style="stroke: #A80036; stroke-width: 1.0;"/><polygon fill="#A80036" points="65.6459,453.705,73.0111,447.1663,67.7145,449.153,65.7278,443.8565,65.6459,453.705" style="stroke: #A80036; stroke-width: 1.0;"/><!--link Vue to User--><path d="M549.985,145.553 C541.37,176.066 529.982,216.396 522.346,243.442 " fill="none" id="Vue-User" style="stroke: #A80036; stroke-width: 1.0;"/><polygon fill="none" points="543.255,143.627,555.426,126.281,556.728,147.431,543.255,143.627" style="stroke: #A80036; stroke-width: 1.0;"/><!--link Vue to HelloWorld--><path d="M588.247,143.198 C600.278,161.625 614.878,183.984 628.546,204.917 " fill="none" id="Vue-HelloWorld" style="stroke: #A80036; stroke-width: 1.0;"/><polygon fill="none" points="582.275,146.855,577.201,126.281,593.997,139.201,582.275,146.855" style="stroke: #A80036; stroke-width: 1.0;"/><!--link HelloWorld to store.UserStore--><path d="M760.142,329.97 C774.093,339.589 788.154,349.796 801,360 C816.276,372.135 831.906,385.777 846.696,399.346 " fill="none" id="HelloWorld-store.UserStore" style="stroke: #A80036; stroke-width: 1.0;"/><polygon fill="#A80036" points="850.437,402.793,846.5293,393.7525,846.7601,399.4047,841.108,399.6355,850.437,402.793" style="stroke: #A80036; stroke-width: 1.0;"/><!--link HelloWorld to store.HeaderStore--><path d="M663.897,343.106 C660.709,366.959 657.153,393.558 654.057,416.725 " fill="none" id="HelloWorld-store.HeaderStore" style="stroke: #A80036; stroke-width: 1.0;"/><polygon fill="#A80036" points="653.362,421.919,658.5175,413.5273,654.0235,416.9629,650.5878,412.4689,653.362,421.919" style="stroke: #A80036; stroke-width: 1.0;"/><!--link Vue to UserDetail--><path d="M608.475,124.453 C662.059,149.274 746.768,188.805 778,205 C801.809,217.346 827.754,231.904 849.408,244.377 " fill="none" id="Vue-UserDetail" style="stroke: #A80036; stroke-width: 1.0;"/><polygon fill="none" points="605.511,130.794,590.298,116.044,611.389,118.088,605.511,130.794" style="stroke: #A80036; stroke-width: 1.0;"/><!--link UserDetail to store.UserStore--><path d="M901.984,304.806 C905.256,329.286 910.046,365.121 914.41,397.769 " fill="none" id="UserDetail-store.UserStore" style="stroke: #A80036; stroke-width: 1.0;"/><polygon fill="#A80036" points="915.106,402.979,917.8775,393.5281,914.4431,398.0231,909.9481,394.5887,915.106,402.979" style="stroke: #A80036; stroke-width: 1.0;"/><!--
@startuml
class entity.User {
    +test: string
    +name: string
    +age: number
}
interface entity.MenuItem {
    +name: string
    +path: string
    +isDefault: boolean
}
class store.HeaderStore {
    +menus: MenuItem[]
    +selectedMenuItem: MenuItem
    +temp: MenuItem
    +selectMenuItem(menuItem: MenuItem): void
    +requestMenus(): void
}
class store.Sub1 {
    +name: string
}
class store.Sub2
class store.Sub11 {
    +name: string
}
class store.UserStore {
    +list: User[]
    +selected: User
    +getSelectedUser(): User
    +getSelectedUserName(): number
    +getUsers(): User[]
    +addUser(user: User): void
    +rename(name: string): void
    +selectUser(user: User): void
}
class HeaderNav extends Vue {
    +menuItems: MenuItem[]
    +subName: string
    +selectedMenuItem: MenuItem
    +selectMenuItem(menuItem: MenuItem): void
}
HeaderNav - -> store.HeaderStore
HeaderNav - -> store.Sub1
HeaderNav - -> subModule
class User extends Vue {
    +data: {}
}
class HelloWorld extends Vue {
    -msg: string
    +outsideState: User[]
    +selectedUser: User
    +selectedUserAge: number
    +click(): void
    +rename(): void
    +select(user: User): void
}
HelloWorld - -> store.UserStore
HelloWorld - -> store.HeaderStore
class UserDetail extends Vue {
    +user: User
}
UserDetail - -> store.UserStore
@enduml

PlantUML version 1.2019.08(Sat Jul 13 19:25:14 UTC 2019)
(GPL source distribution)
Java Runtime: Java(TM) SE Runtime Environment
JVM: Java HotSpot(TM) 64-Bit Server VM
Java Version: 1.7.0_25-b15
Operating System: Linux
Default Encoding: UTF-8
Language: en
Country: US
--></g></svg>